<?xml version="1.0" encoding="UTF-8"?>
<svg xmlns="http://www.w3.org/2000/svg" width="1638" height="358" viewBox="0 0 1638 358">
  <style>
    .title { fill: #e7f6fb; font: 600 11px ui-monospace, SFMono-Regular, Menlo, monospace; }
    .metric { fill: #9cb4bf; font: 10px ui-monospace, SFMono-Regular, Menlo, monospace; }
  </style>
  <rect width="100%" height="100%" fill="#0d1b22"/>

    <g transform="translate(18 18)">
      <rect width="390" height="98" rx="6" fill="#071117"/>
      <path d="M38 43h3v1H38zM46 43h23v1H46zM162 43h2v1H162zM170 43h4v1H170zM290 43h6v1H290zM35 44h41v1H35zM162 44h15v1H162zM290 44h10v1H290zM29 45h52v1H29zM162 45h22v1H162zM290 45h16v1H290zM20 46h66v1H20zM162 46h27v1H162zM290 46h22v1H290zM379 46h11v1H379zM9 47h82v1H9zM162 47h35v1H162zM290 47h25v1H290zM371 47h19v1H371zM0 48h96v1H0zM114 48h9v1H114zM162 48h37v1H162zM290 48h32v1H290zM363 48h27v1H363zM0 49h104v1H0zM114 49h9v1H114zM162 49h46v1H162zM290 49h39v1H290zM352 49h38v1H352zM0 50h104v1H0zM162 50h48v1H162zM290 50h100v1H290zM0 51h104v1H0zM162 51h62v1H162zM232 51h8v1H232zM290 51h100v1H290zM0 52h104v1H0zM162 52h78v1H162zM290 52h100v1H290zM0 53h104v1H0zM162 53h78v1H162zM290 53h100v1H290zM0 54h104v1H0zM162 54h78v1H162zM290 54h100v1H290zM0 55h104v1H0zM162 55h78v1H162zM290 55h100v1H290zM0 56h104v1H0zM162 56h78v1H162zM290 56h100v1H290zM0 57h104v1H0zM162 57h78v1H162zM290 57h100v1H290zM0 58h104v1H0zM162 58h78v1H162zM290 58h100v1H290zM0 59h104v1H0zM162 59h78v1H162zM290 59h100v1H290zM0 60h104v1H0zM162 60h78v1H162zM290 60h100v1H290zM0 61h104v1H0zM162 61h78v1H162zM290 61h100v1H290zM0 62h104v1H0zM162 62h78v1H162zM290 62h100v1H290zM0 63h104v1H0zM162 63h78v1H162zM290 63h100v1H290zM0 64h104v1H0zM162 64h78v1H162zM290 64h100v1H290zM0 65h104v1H0zM162 65h78v1H162zM290 65h100v1H290zM0 66h104v1H0zM162 66h78v1H162zM290 66h100v1H290zM0 67h104v1H0zM162 67h78v1H162zM290 67h100v1H290zM0 68h104v1H0zM162 68h78v1H162zM290 68h100v1H290zM0 69h104v1H0zM162 69h78v1H162zM290 69h100v1H290zM0 70h104v1H0zM162 70h78v1H162zM290 70h100v1H290zM0 71h104v1H0zM162 71h78v1H162zM290 71h100v1H290zM0 72h104v1H0zM162 72h78v1H162zM290 72h100v1H290zM0 73h104v1H0zM162 73h78v1H162zM290 73h100v1H290zM0 74h104v1H0zM162 74h78v1H162zM290 74h100v1H290zM0 75h104v1H0zM162 75h78v1H162zM290 75h100v1H290zM0 76h104v1H0zM162 76h78v1H162zM290 76h100v1H290zM0 77h104v1H0zM162 77h78v1H162zM290 77h100v1H290zM0 78h104v1H0zM162 78h78v1H162zM290 78h100v1H290zM0 79h104v1H0zM162 79h78v1H162zM290 79h100v1H290zM0 80h104v1H0zM162 80h78v1H162zM290 80h100v1H290zM0 81h104v1H0zM162 81h78v1H162zM290 81h100v1H290zM0 82h104v1H0zM162 82h78v1H162zM290 82h100v1H290zM0 83h104v1H0zM162 83h78v1H162zM290 83h100v1H290zM0 84h104v1H0zM162 84h78v1H162zM290 84h100v1H290zM0 85h104v1H0zM162 85h78v1H162zM290 85h100v1H290zM0 86h104v1H0zM162 86h78v1H162zM290 86h100v1H290zM0 87h104v1H0zM162 87h78v1H162zM290 87h100v1H290zM0 88h104v1H0zM162 88h78v1H162zM290 88h100v1H290zM0 89h104v1H0zM162 89h78v1H162zM290 89h100v1H290zM0 90h104v1H0zM162 90h78v1H162zM290 90h100v1H290zM0 91h104v1H0zM162 91h78v1H162zM290 91h100v1H290zM0 92h104v1H0zM162 92h78v1H162zM290 92h100v1H290zM0 93h104v1H0zM162 93h78v1H162zM290 93h100v1H290zM0 94h104v1H0zM162 94h78v1H162zM290 94h100v1H290zM0 95h104v1H0zM162 95h78v1H162zM290 95h100v1H290z" fill="#7b542b"/>
      <path d="M194 19h17v1H194zM178 20h49v1H178zM171 21h63v1H171zM166 22h73v1H166zM163 23h80v1H163zM161 24h84v1H161zM160 25h86v1H160zM159 26h87v1H159zM160 27h86v1H160zM161 28h84v1H161zM163 29h79v1H163zM167 30h72v1H167zM171 31h63v1H171zM180 32h46v1H180zM195 33h16v1H195zM161 45h1v1H161zM97 46h18v1H97zM138 46h25v1H138zM97 47h65v1H97zM107 48h38v1H107zM0 95h104v1H0zM162 95h78v1H162zM290 95h100v1H290zM0 96h104v1H0zM162 96h78v1H162zM290 96h100v1H290zM0 97h104v1H0zM162 97h228v1H162z" fill="#33434c"/>
      <circle cx="118.6" cy="45.6" r="3.5" fill="#b7ff5a" stroke="#071117" stroke-width="1"/><circle cx="337.5" cy="49.1" r="3.5" fill="#ff4db8" stroke="#071117" stroke-width="1"/>
      <rect width="390" height="98" rx="6" fill="none" stroke="#4f6975"/>

    </g>

    <g transform="translate(422 18)">
      <rect width="390" height="98" rx="6" fill="#071117"/>
      <path d="M147 27h9v1H147zM143 28h17v1H143zM238 28h8v1H238zM141 29h21v1H141zM233 29h15v1H233zM139 30h25v1H139zM231 30h20v1H231zM137 31h29v1H137zM228 31h26v1H228zM135 32h32v1H135zM226 32h29v1H226zM134 33h35v1H134zM224 33h32v1H224zM132 34h38v1H132zM222 34h36v1H222zM131 35h41v1H131zM220 35h39v1H220zM130 36h43v1H130zM218 36h43v1H218zM129 37h46v1H129zM217 37h45v1H217zM127 38h49v1H127zM215 38h49v1H215zM125 39h53v1H125zM213 39h52v1H213zM123 40h57v1H123zM211 40h56v1H211zM122 41h59v1H122zM209 41h59v1H209zM122 42h60v1H122zM208 42h61v1H208zM120 43h61v1H120zM209 43h62v1H209zM119 44h61v1H119zM210 44h62v1H210zM117 45h62v1H117zM211 45h63v1H211zM116 46h62v1H116zM212 46h64v1H212zM114 47h64v1H114zM212 47h66v1H212zM112 48h66v1H112zM212 48h67v1H212zM110 49h68v1H110zM212 49h69v1H212zM108 50h71v1H108zM211 50h75v1H211zM100 51h80v1H100zM210 51h99v1H210zM73 52h3v1H73zM80 52h101v1H80zM209 52h116v1H209zM61 53h121v1H61zM208 53h125v1H208zM340 53h1v1H340zM41 54h2v1H41zM48 54h136v1H48zM206 54h138v1H206zM30 55h5v1H30zM37 55h151v1H37zM202 55h159v1H202zM8 56h3v1H8zM16 56h364v1H16zM0 57h390v1H0zM0 58h390v1H0zM0 59h390v1H0zM0 60h390v1H0zM0 61h390v1H0zM0 62h390v1H0zM0 63h390v1H0zM0 64h390v1H0zM0 65h390v1H0zM0 66h390v1H0zM0 67h390v1H0zM0 68h390v1H0zM0 69h390v1H0zM0 70h390v1H0zM0 71h390v1H0zM0 72h390v1H0zM0 73h390v1H0zM0 74h390v1H0zM0 75h390v1H0zM0 76h390v1H0zM0 77h390v1H0zM0 78h390v1H0zM0 79h390v1H0zM0 80h390v1H0zM0 81h390v1H0zM0 82h390v1H0zM0 83h390v1H0zM0 84h390v1H0zM0 85h390v1H0zM0 86h390v1H0zM0 87h390v1H0zM0 88h390v1H0zM0 89h390v1H0zM0 90h390v1H0zM0 91h390v1H0zM0 92h390v1H0zM0 93h390v1H0zM0 94h390v1H0zM0 95h390v1H0z" fill="#7b542b"/>
      <path d="M166 32h10v1H166zM167 33h59v1H167zM175 34h49v1H175zM0 95h390v1H0zM0 96h390v1H0zM0 97h390v1H0z" fill="#33434c"/>
      <circle cx="67.0" cy="52.0" r="3.5" fill="#b7ff5a" stroke="#071117" stroke-width="1"/><circle cx="355.9" cy="54.0" r="3.5" fill="#ff4db8" stroke="#071117" stroke-width="1"/>
      <rect width="390" height="98" rx="6" fill="none" stroke="#4f6975"/>

    </g>

    <g transform="translate(826 18)">
      <rect width="390" height="98" rx="6" fill="#071117"/>
      <path d="M389 38h1v1H389zM0 39h5v1H0zM6 39h3v1H6zM12 39h3v1H12zM21 39h4v1H21zM40 39h2v1H40zM363 39h2v1H363zM371 39h19v1H371zM0 40h81v1H0zM86 40h3v1H86zM101 40h1v1H101zM331 40h2v1H331zM339 40h4v1H339zM347 40h43v1H347zM0 41h112v1H0zM320 41h70v1H320zM0 42h112v1H0zM283 42h10v1H283zM296 42h94v1H296zM0 43h112v1H0zM278 43h112v1H278zM0 44h112v1H0zM278 44h112v1H278zM0 45h112v1H0zM278 45h112v1H278zM0 46h112v1H0zM278 46h112v1H278zM0 47h112v1H0zM278 47h112v1H278zM0 48h112v1H0zM156 48h2v1H156zM164 48h5v1H164zM170 48h5v1H170zM278 48h112v1H278zM0 49h176v1H0zM278 49h112v1H278zM0 50h176v1H0zM215 50h175v1H215zM0 51h176v1H0zM215 51h175v1H215zM0 52h151v1H0zM215 52h175v1H215zM0 53h146v1H0zM215 53h175v1H215zM0 54h143v1H0zM208 54h182v1H208zM0 55h141v1H0zM208 55h182v1H208zM0 56h139v1H0zM208 56h182v1H208zM0 57h138v1H0zM215 57h175v1H215zM0 58h137v1H0zM215 58h175v1H215zM0 59h137v1H0zM215 59h175v1H215zM0 60h137v1H0zM215 60h175v1H215zM0 61h138v1H0zM195 61h195v1H195zM0 62h139v1H0zM195 62h195v1H195zM0 63h141v1H0zM195 63h195v1H195zM0 64h143v1H0zM195 64h195v1H195zM0 65h144v1H0zM195 65h195v1H195zM0 66h152v1H0zM176 66h214v1H176zM0 67h390v1H0zM0 68h390v1H0zM0 69h390v1H0zM0 70h390v1H0zM0 71h390v1H0zM0 72h390v1H0zM0 73h390v1H0zM0 74h390v1H0zM0 75h390v1H0zM0 76h390v1H0zM0 77h390v1H0zM0 78h390v1H0zM0 79h390v1H0zM0 80h390v1H0zM0 81h390v1H0zM0 82h390v1H0zM0 83h390v1H0zM0 84h390v1H0zM0 85h390v1H0zM0 86h390v1H0zM0 87h390v1H0zM0 88h390v1H0zM0 89h390v1H0zM0 90h390v1H0zM0 91h390v1H0zM0 92h390v1H0zM0 93h390v1H0zM0 94h390v1H0zM0 95h390v1H0z" fill="#7b542b"/>
      <path d="M146 58h36v1H146zM146 59h36v1H146zM146 60h36v1H146zM0 95h390v1H0zM0 96h390v1H0zM0 97h390v1H0z" fill="#33434c"/>
      <circle cx="74.6" cy="39.3" r="3.5" fill="#b7ff5a" stroke="#071117" stroke-width="1"/><circle cx="323.9" cy="40.4" r="3.5" fill="#ff4db8" stroke="#071117" stroke-width="1"/>
      <rect width="390" height="98" rx="6" fill="none" stroke="#4f6975"/>

    </g>

    <g transform="translate(1230 18)">
      <rect width="390" height="98" rx="6" fill="#071117"/>
      <path d="M69 38h7v1H69zM81 38h3v1H81zM89 38h3v1H89zM306 38h7v1H306zM45 39h49v1H45zM280 39h4v1H280zM294 39h46v1H294zM16 40h4v1H16zM27 40h69v1H27zM103 40h8v1H103zM267 40h4v1H267zM275 40h12v1H275zM294 40h69v1H294zM2 41h10v1H2zM14 41h81v1H14zM103 41h17v1H103zM124 41h3v1H124zM258 41h29v1H258zM295 41h95v1H295zM0 42h94v1H0zM103 42h34v1H103zM232 42h4v1H232zM244 42h43v1H244zM296 42h94v1H296zM0 43h93v1H0zM103 43h56v1H103zM162 43h7v1H162zM170 43h12v1H170zM183 43h104v1H183zM297 43h93v1H297zM0 44h71v1H0zM103 44h184v1H103zM319 44h71v1H319zM0 45h69v1H0zM102 45h186v1H102zM321 45h69v1H321zM0 46h69v1H0zM104 46h182v1H104zM321 46h69v1H321zM0 47h68v1H0zM135 47h120v1H135zM322 47h68v1H322zM0 48h68v1H0zM189 48h12v1H189zM322 48h68v1H322zM0 49h68v1H0zM322 49h68v1H322zM0 50h68v1H0zM322 50h68v1H322zM0 51h67v1H0zM323 51h67v1H323zM0 52h60v1H0zM330 52h60v1H330zM0 53h56v1H0zM116 53h29v1H116zM245 53h29v1H245zM334 53h56v1H334zM0 54h53v1H0zM119 54h152v1H119zM337 54h53v1H337zM0 55h50v1H0zM82 55h8v1H82zM122 55h146v1H122zM301 55h7v1H301zM340 55h50v1H340zM0 56h48v1H0zM82 56h8v1H82zM124 56h142v1H124zM300 56h8v1H300zM342 56h48v1H342zM0 57h47v1H0zM82 57h8v1H82zM125 57h140v1H125zM300 57h8v1H300zM343 57h47v1H343zM0 58h46v1H0zM344 58h46v1H344zM0 59h45v1H0zM345 59h45v1H345zM0 60h45v1H0zM345 60h45v1H345zM0 61h46v1H0zM344 61h46v1H344zM0 62h47v1H0zM124 62h142v1H124zM343 62h47v1H343zM0 63h49v1H0zM123 63h144v1H123zM341 63h49v1H341zM0 64h51v1H0zM120 64h150v1H120zM339 64h51v1H339zM0 65h54v1H0zM118 65h154v1H118zM336 65h54v1H336zM0 66h58v1H0zM113 66h164v1H113zM332 66h58v1H332zM0 67h63v1H0zM108 67h174v1H108zM327 67h63v1H327zM0 68h71v1H0zM101 68h188v1H101zM319 68h71v1H319zM0 69h390v1H0zM0 70h390v1H0zM0 71h390v1H0zM0 72h390v1H0zM0 73h390v1H0zM0 74h390v1H0zM0 75h390v1H0zM0 76h390v1H0zM0 77h390v1H0zM0 78h390v1H0zM0 79h390v1H0zM0 80h390v1H0zM0 81h390v1H0zM0 82h390v1H0zM0 83h390v1H0zM0 84h390v1H0zM0 85h390v1H0zM0 86h390v1H0zM0 87h390v1H0zM0 88h390v1H0zM0 89h390v1H0zM0 90h390v1H0zM0 91h390v1H0zM0 92h390v1H0zM0 93h390v1H0zM0 94h390v1H0zM0 95h390v1H0z" fill="#7b542b"/>
      <path d="M62 65h48v1H62zM280 65h48v1H280zM62 66h48v1H62zM280 66h48v1H280zM62 67h48v1H62zM280 67h48v1H280zM0 95h390v1H0zM0 96h390v1H0zM0 97h390v1H0z" fill="#33434c"/>
      <rect x="82.4" y="50.7" width="7" height="7" rx="1" fill="#b7ff5a" stroke="#071117" stroke-width="1"/><rect x="300.6" y="50.7" width="7" height="7" rx="1" fill="#ff4db8" stroke="#071117" stroke-width="1"/>
      <rect width="390" height="98" rx="6" fill="none" stroke="#4f6975"/>

    </g>

    <g transform="translate(18 130)">
      <rect width="390" height="98" rx="6" fill="#071117"/>
      <path d="M151 28h51v1H151zM204 28h6v1H204zM219 28h4v1H219zM151 29h89v1H151zM151 30h89v1H151zM151 31h89v1H151zM151 32h89v1H151zM151 33h89v1H151zM151 34h89v1H151zM151 35h89v1H151zM151 36h89v1H151zM151 37h34v1H151zM205 37h35v1H205zM151 38h30v1H151zM209 38h31v1H209zM151 39h28v1H151zM211 39h29v1H211zM151 40h26v1H151zM213 40h27v1H213zM151 41h24v1H151zM215 41h25v1H215zM138 42h36v1H138zM216 42h24v1H216zM241 42h6v1H241zM134 43h39v1H134zM217 43h38v1H217zM131 44h41v1H131zM218 44h40v1H218zM124 45h48v1H124zM218 45h44v1H218zM122 46h50v1H122zM218 46h49v1H218zM118 47h54v1H118zM218 47h53v1H218zM114 48h58v1H114zM218 48h58v1H218zM109 49h63v1H109zM218 49h61v1H218zM104 50h69v1H104zM217 50h68v1H217zM90 51h4v1H90zM99 51h75v1H99zM216 51h73v1H216zM71 52h105v1H71zM214 52h78v1H214zM58 53h119v1H58zM213 53h105v1H213zM319 53h5v1H319zM40 54h4v1H40zM47 54h131v1H47zM212 54h131v1H212zM30 55h148v1H30zM212 55h149v1H212zM0 56h3v1H0zM6 56h182v1H6zM202 56h178v1H202zM0 57h390v1H0zM0 58h390v1H0zM0 59h390v1H0zM0 60h390v1H0zM0 61h390v1H0zM0 62h390v1H0zM0 63h390v1H0zM0 64h390v1H0zM0 65h390v1H0zM0 66h390v1H0zM0 67h390v1H0zM0 68h390v1H0zM0 69h390v1H0zM0 70h390v1H0zM0 71h390v1H0zM0 72h390v1H0zM0 73h390v1H0zM0 74h390v1H0zM0 75h390v1H0zM0 76h390v1H0zM0 77h390v1H0zM0 78h390v1H0zM0 79h390v1H0zM0 80h390v1H0zM0 81h390v1H0zM0 82h390v1H0zM0 83h390v1H0zM0 84h390v1H0zM0 85h390v1H0zM0 86h390v1H0zM0 87h390v1H0zM0 88h390v1H0zM0 89h390v1H0zM0 90h390v1H0zM0 91h390v1H0zM0 92h390v1H0zM0 93h390v1H0zM0 94h390v1H0zM0 95h390v1H0z" fill="#7b542b"/>
      <path d="M182 46h27v1H182zM181 47h28v1H181zM181 48h28v1H181zM0 95h390v1H0zM0 96h390v1H0zM0 97h390v1H0z" fill="#33434c"/>
      <circle cx="65.0" cy="51.9" r="3.5" fill="#b7ff5a" stroke="#071117" stroke-width="1"/><circle cx="353.0" cy="54.2" r="3.5" fill="#ff4db8" stroke="#071117" stroke-width="1"/>
      <rect width="390" height="98" rx="6" fill="none" stroke="#4f6975"/>

    </g>

    <g transform="translate(422 130)">
      <rect width="390" height="98" rx="6" fill="#071117"/>
      <path d="M0 40h3v1H0zM7 40h3v1H7zM12 40h4v1H12zM21 40h4v1H21zM40 40h3v1H40zM362 40h4v1H362zM370 40h20v1H370zM0 41h81v1H0zM86 41h3v1H86zM101 41h1v1H101zM331 41h1v1H331zM339 41h4v1H339zM347 41h43v1H347zM0 42h115v1H0zM117 42h3v1H117zM328 42h62v1H328zM0 43h128v1H0zM132 43h1v1H132zM275 43h3v1H275zM284 43h9v1H284zM296 43h94v1H296zM0 44h140v1H0zM256 44h5v1H256zM264 44h126v1H264zM0 45h151v1H0zM155 45h2v1H155zM234 45h4v1H234zM239 45h151v1H239zM0 46h161v1H0zM162 46h8v1H162zM220 46h170v1H220zM0 47h170v1H0zM220 47h170v1H220zM0 48h170v1H0zM220 48h170v1H220zM0 49h170v1H0zM220 49h170v1H220zM0 50h170v1H0zM220 50h170v1H220zM0 51h170v1H0zM220 51h170v1H220zM0 52h170v1H0zM220 52h170v1H220zM0 53h170v1H0zM220 53h170v1H220zM0 54h170v1H0zM220 54h170v1H220zM0 55h170v1H0zM220 55h170v1H220zM0 56h170v1H0zM220 56h170v1H220zM0 57h170v1H0zM220 57h170v1H220zM0 58h170v1H0zM220 58h170v1H220zM0 59h170v1H0zM220 59h170v1H220zM0 60h170v1H0zM220 60h170v1H220zM0 61h170v1H0zM220 61h170v1H220zM0 62h170v1H0zM220 62h170v1H220zM0 63h170v1H0zM220 63h170v1H220zM0 64h170v1H0zM220 64h170v1H220zM0 65h170v1H0zM220 65h170v1H220zM0 66h170v1H0zM220 66h170v1H220zM0 67h170v1H0zM220 67h170v1H220zM0 68h170v1H0zM220 68h170v1H220zM0 69h170v1H0zM220 69h170v1H220zM0 70h170v1H0zM220 70h170v1H220zM0 71h170v1H0zM220 71h170v1H220zM0 72h170v1H0zM220 72h170v1H220zM0 73h170v1H0zM220 73h170v1H220zM0 74h170v1H0zM220 74h170v1H220zM0 75h170v1H0zM220 75h170v1H220zM0 76h170v1H0zM220 76h170v1H220zM0 77h170v1H0zM220 77h170v1H220zM0 78h170v1H0zM220 78h170v1H220zM0 79h170v1H0zM220 79h170v1H220zM0 80h170v1H0zM220 80h170v1H220zM0 81h170v1H0zM220 81h170v1H220zM0 82h170v1H0zM220 82h170v1H220zM0 83h170v1H0zM220 83h170v1H220zM0 84h170v1H0zM220 84h170v1H220zM0 85h170v1H0zM220 85h170v1H220zM0 86h170v1H0zM220 86h170v1H220zM0 87h170v1H0zM220 87h170v1H220zM0 88h390v1H0zM0 89h390v1H0zM0 90h390v1H0zM0 91h390v1H0zM0 92h390v1H0zM0 93h390v1H0zM0 94h390v1H0zM0 95h390v1H0z" fill="#7b542b"/>
      <path d="M165 43h60v1H165zM165 44h60v1H165zM0 95h390v1H0zM0 96h390v1H0zM0 97h390v1H0z" fill="#33434c"/>
      <circle cx="97.2" cy="40.6" r="3.5" fill="#b7ff5a" stroke="#071117" stroke-width="1"/><circle cx="323.8" cy="41.5" r="3.5" fill="#ff4db8" stroke="#071117" stroke-width="1"/>
      <rect width="390" height="98" rx="6" fill="none" stroke="#4f6975"/>

    </g>

    <g transform="translate(826 130)">
      <rect width="390" height="98" rx="6" fill="#071117"/>
      <path d="M318 33h12v1H318zM307 34h35v1H307zM301 35h48v1H301zM291 36h66v1H291zM283 37h83v1H283zM280 38h7v1H280zM306 38h66v1H306zM314 39h73v1H314zM319 40h71v1H319zM250 41h4v1H250zM324 41h66v1H324zM240 42h14v1H240zM326 42h64v1H326zM231 43h23v1H231zM329 43h61v1H329zM220 44h34v1H220zM331 44h59v1H331zM214 45h40v1H214zM332 45h58v1H332zM203 46h51v1H203zM333 46h57v1H333zM193 47h61v1H193zM333 47h57v1H333zM187 48h67v1H187zM334 48h56v1H334zM172 49h3v1H172zM178 49h76v1H178zM334 49h56v1H334zM168 50h86v1H168zM333 50h57v1H333zM157 51h97v1H157zM332 51h58v1H332zM147 52h107v1H147zM331 52h59v1H331zM136 53h118v1H136zM329 53h61v1H329zM128 54h126v1H128zM327 54h63v1H327zM117 55h137v1H117zM324 55h66v1H324zM104 56h150v1H104zM324 56h66v1H324zM96 57h182v1H96zM315 57h75v1H315zM83 58h203v1H83zM307 58h83v1H307zM74 59h316v1H74zM60 60h330v1H60zM35 61h8v1H35zM46 61h344v1H46zM0 62h3v1H0zM8 62h382v1H8zM0 63h390v1H0zM0 64h390v1H0zM0 65h390v1H0zM0 66h390v1H0zM0 67h390v1H0zM0 68h390v1H0zM0 69h390v1H0zM0 70h390v1H0zM0 71h390v1H0zM0 72h390v1H0zM0 73h390v1H0zM0 74h390v1H0zM0 75h390v1H0zM0 76h390v1H0zM0 77h390v1H0zM0 78h390v1H0zM0 79h390v1H0zM0 80h390v1H0zM0 81h390v1H0zM0 82h390v1H0zM0 83h390v1H0zM0 84h390v1H0zM0 85h390v1H0zM0 86h390v1H0zM0 87h390v1H0zM0 88h390v1H0zM0 89h390v1H0zM0 90h390v1H0zM0 91h390v1H0zM0 92h390v1H0zM0 93h390v1H0zM0 94h390v1H0zM0 95h390v1H0z" fill="#7b542b"/>
      <path d="M289 15h15v1H289zM273 16h47v1H273zM265 17h63v1H265zM260 18h73v1H260zM257 19h79v1H257zM255 20h83v1H255zM253 21h86v1H253zM253 22h87v1H253zM253 23h86v1H253zM254 24h84v1H254zM257 25h79v1H257zM260 26h73v1H260zM265 27h63v1H265zM272 28h49v1H272zM288 29h17v1H288zM0 95h390v1H0zM0 96h390v1H0zM0 97h390v1H0z" fill="#33434c"/>
      <circle cx="92.6" cy="56.8" r="3.5" fill="#b7ff5a" stroke="#071117" stroke-width="1"/><circle cx="300.4" cy="14.4" r="3.5" fill="#ff4db8" stroke="#071117" stroke-width="1"/>
      <rect width="390" height="98" rx="6" fill="none" stroke="#4f6975"/>

    </g>

    <g transform="translate(1230 130)">
      <rect width="390" height="98" rx="6" fill="#071117"/>
      <path d="M186 34h14v1H186zM73 35h1v1H73zM184 35h19v1H184zM58 36h26v1H58zM181 36h11v1H181zM198 36h9v1H198zM49 37h44v1H49zM173 37h17v1H173zM200 37h12v1H200zM43 38h52v1H43zM98 38h2v1H98zM170 38h19v1H170zM201 38h16v1H201zM311 38h3v1H311zM318 38h4v1H318zM34 39h69v1H34zM164 39h24v1H164zM202 39h20v1H202zM304 39h35v1H304zM29 40h75v1H29zM163 40h25v1H163zM202 40h23v1H202zM294 40h57v1H294zM23 41h81v1H23zM110 41h3v1H110zM115 41h2v1H115zM221 41h5v1H221zM288 41h71v1H288zM15 42h89v1H15zM110 42h10v1H110zM285 42h81v1H285zM2 43h77v1H2zM110 43h9v1H110zM275 43h3v1H275zM285 43h99v1H285zM387 43h3v1H387zM0 44h77v1H0zM267 44h11v1H267zM286 44h104v1H286zM0 45h76v1H0zM273 45h5v1H273zM289 45h1v1H289zM292 45h2v1H292zM296 45h1v1H296zM300 45h1v1H300zM304 45h1v1H304zM310 45h80v1H310zM0 46h76v1H0zM169 46h19v1H169zM312 46h78v1H312zM0 47h75v1H0zM145 47h43v1H145zM202 47h25v1H202zM314 47h76v1H314zM0 48h75v1H0zM129 48h59v1H129zM202 48h40v1H202zM314 48h76v1H314zM0 49h75v1H0zM115 49h37v1H115zM238 49h17v1H238zM315 49h75v1H315zM0 50h75v1H0zM112 50h25v1H112zM253 50h11v1H253zM265 50h1v1H265zM315 50h75v1H315zM0 51h76v1H0zM111 51h14v1H111zM266 51h10v1H266zM315 51h75v1H315zM0 52h77v1H0zM111 52h4v1H111zM275 52h1v1H275zM315 52h75v1H315zM0 53h78v1H0zM314 53h76v1H314zM0 54h97v1H0zM314 54h76v1H314zM0 55h97v1H0zM313 55h77v1H313zM0 56h97v1H0zM293 56h7v1H293zM311 56h79v1H311zM0 57h86v1H0zM293 57h7v1H293zM304 57h86v1H304zM0 58h82v1H0zM293 58h7v1H293zM308 58h82v1H308zM0 59h79v1H0zM293 59h7v1H293zM311 59h79v1H311zM0 60h77v1H0zM313 60h77v1H313zM0 61h75v1H0zM315 61h75v1H315zM0 62h73v1H0zM317 62h73v1H317zM0 63h73v1H0zM317 63h73v1H317zM0 64h72v1H0zM318 64h72v1H318zM0 65h72v1H0zM318 65h72v1H318zM0 66h73v1H0zM317 66h73v1H317zM0 67h73v1H0zM317 67h73v1H317zM0 68h71v1H0zM319 68h71v1H319zM0 69h77v1H0zM313 69h77v1H313zM0 70h80v1H0zM310 70h80v1H310zM0 71h82v1H0zM308 71h82v1H308zM0 72h86v1H0zM304 72h86v1H304zM0 73h90v1H0zM300 73h90v1H300zM0 74h96v1H0zM294 74h96v1H294zM0 75h101v1H0zM289 75h101v1H289zM0 76h105v1H0zM285 76h105v1H285zM0 77h106v1H0zM285 77h105v1H285zM0 78h106v1H0zM285 78h105v1H285zM0 79h138v1H0zM252 79h138v1H252zM0 80h156v1H0zM234 80h156v1H234zM0 81h390v1H0zM0 82h390v1H0zM0 83h390v1H0zM0 84h390v1H0zM0 85h390v1H0zM0 86h390v1H0zM0 87h390v1H0zM0 88h390v1H0zM0 89h390v1H0zM0 90h390v1H0zM0 91h390v1H0zM0 92h390v1H0zM0 93h390v1H0zM0 94h390v1H0zM0 95h390v1H0z" fill="#7b542b"/>
      <path d="M175 58h40v1H175zM166 59h58v1H166zM151 60h8v1H151zM161 60h68v1H161zM231 60h8v1H231zM141 61h108v1H141zM123 62h29v1H123zM158 62h74v1H158zM238 62h29v1H238zM112 63h32v1H112zM158 63h74v1H158zM246 63h32v1H246zM112 64h15v1H112zM160 64h70v1H160zM263 64h15v1H263zM163 65h64v1H163zM170 66h50v1H170zM70 67h47v1H70zM187 67h16v1H187zM273 67h47v1H273zM70 68h48v1H70zM272 68h48v1H272zM70 69h47v1H70zM273 69h47v1H273zM0 95h390v1H0zM0 96h390v1H0zM0 97h390v1H0z" fill="#33434c"/>
      <rect x="90.1" y="49.6" width="7" height="7" rx="1" fill="#b7ff5a" stroke="#071117" stroke-width="1"/><rect x="292.9" y="51.9" width="7" height="7" rx="1" fill="#ff4db8" stroke="#071117" stroke-width="1"/>
      <rect width="390" height="98" rx="6" fill="none" stroke="#4f6975"/>

    </g>

    <g transform="translate(18 242)">
      <rect width="390" height="98" rx="6" fill="#071117"/>
      <path d="M0 38h3v1H0zM0 39h25v1H0zM371 39h19v1H371zM0 40h36v1H0zM39 40h4v1H39zM350 40h1v1H350zM360 40h30v1H360zM0 41h52v1H0zM59 41h1v1H59zM339 41h4v1H339zM347 41h43v1H347zM0 42h81v1H0zM329 42h6v1H329zM337 42h53v1H337zM0 43h90v1H0zM301 43h89v1H301zM0 44h94v1H0zM297 44h93v1H297zM0 45h98v1H0zM291 45h99v1H291zM0 46h103v1H0zM286 46h104v1H286zM0 47h105v1H0zM283 47h107v1H283zM0 48h110v1H0zM138 48h7v1H138zM245 48h7v1H245zM276 48h114v1H276zM0 49h114v1H0zM138 49h25v1H138zM227 49h25v1H227zM272 49h118v1H272zM0 50h119v1H0zM146 50h98v1H146zM257 50h2v1H257zM265 50h125v1H265zM0 51h124v1H0zM162 51h66v1H162zM250 51h140v1H250zM0 52h136v1H0zM247 52h143v1H247zM0 53h140v1H0zM244 53h146v1H244zM0 54h143v1H0zM241 54h149v1H241zM0 55h146v1H0zM239 55h151v1H239zM0 56h148v1H0zM236 56h154v1H236zM0 57h150v1H0zM233 57h157v1H233zM0 58h152v1H0zM231 58h159v1H231zM0 59h154v1H0zM225 59h165v1H225zM0 60h158v1H0zM218 60h172v1H218zM0 61h160v1H0zM213 61h177v1H213zM0 62h169v1H0zM210 62h180v1H210zM0 63h174v1H0zM208 63h182v1H208zM0 64h177v1H0zM205 64h185v1H205zM0 65h179v1H0zM203 65h187v1H203zM0 66h184v1H0zM201 66h189v1H201zM0 67h187v1H0zM199 67h191v1H199zM0 68h390v1H0zM0 69h390v1H0zM0 70h390v1H0zM0 71h390v1H0zM0 72h390v1H0zM0 73h390v1H0zM0 74h390v1H0zM0 75h390v1H0zM0 76h390v1H0zM0 77h390v1H0zM0 78h390v1H0zM0 79h390v1H0zM0 80h390v1H0zM0 81h390v1H0zM0 82h390v1H0zM0 83h390v1H0zM0 84h390v1H0zM0 85h390v1H0zM0 86h390v1H0zM0 87h390v1H0zM0 88h390v1H0zM0 89h390v1H0zM0 90h390v1H0zM0 91h390v1H0zM0 92h390v1H0zM0 93h390v1H0zM0 94h390v1H0zM0 95h390v1H0z" fill="#7b542b"/>
      <path d="M178 53h34v1H178zM169 54h52v1H169zM167 55h56v1H167zM168 56h54v1H168zM171 57h48v1H171zM183 58h24v1H183zM0 95h390v1H0zM0 96h390v1H0zM0 97h390v1H0z" fill="#33434c"/>
      <circle cx="31.3" cy="39.1" r="3.5" fill="#b7ff5a" stroke="#071117" stroke-width="1"/><circle cx="354.8" cy="39.6" r="3.5" fill="#ff4db8" stroke="#071117" stroke-width="1"/>
      <rect width="390" height="98" rx="6" fill="none" stroke="#4f6975"/>

    </g>

    <g transform="translate(422 242)">
      <rect width="390" height="98" rx="6" fill="#071117"/>
      <path d="M279 29h5v1H279zM306 29h3v1H306zM273 30h11v1H273zM292 30h23v1H292zM318 30h5v1H318zM325 30h21v1H325zM269 31h16v1H269zM292 31h62v1H292zM267 32h18v1H267zM293 32h66v1H293zM266 33h19v1H266zM294 33h69v1H294zM264 34h21v1H264zM295 34h71v1H295zM261 35h24v1H261zM319 35h52v1H319zM259 36h28v1H259zM321 36h54v1H321zM257 37h30v1H257zM321 37h61v1H321zM256 38h30v1H256zM322 38h63v1H322zM387 38h3v1H387zM253 39h33v1H253zM322 39h68v1H322zM251 40h35v1H251zM323 40h67v1H323zM248 41h10v1H248zM327 41h63v1H327zM246 42h12v1H246zM331 42h59v1H331zM244 43h14v1H244zM335 43h55v1H335zM91 44h1v1H91zM242 44h16v1H242zM338 44h52v1H338zM71 45h5v1H71zM80 45h5v1H80zM88 45h6v1H88zM98 45h4v1H98zM233 45h3v1H233zM240 45h18v1H240zM341 45h49v1H341zM50 46h62v1H50zM115 46h3v1H115zM227 46h31v1H227zM301 46h7v1H301zM343 46h47v1H343zM30 47h97v1H30zM217 47h41v1H217zM300 47h8v1H300zM345 47h45v1H345zM3 48h8v1H3zM15 48h122v1H15zM209 48h49v1H209zM300 48h8v1H300zM346 48h44v1H346zM0 49h145v1H0zM197 49h61v1H197zM347 49h43v1H347zM0 50h158v1H0zM185 50h73v1H185zM348 50h42v1H348zM0 51h177v1H0zM178 51h80v1H178zM348 51h42v1H348zM0 52h258v1H0zM349 52h41v1H349zM0 53h258v1H0zM349 53h41v1H349zM0 54h258v1H0zM348 54h42v1H348zM0 55h258v1H0zM348 55h42v1H348zM0 56h258v1H0zM347 56h43v1H347zM0 57h258v1H0zM346 57h44v1H346zM0 58h258v1H0zM345 58h45v1H345zM0 59h258v1H0zM343 59h47v1H343zM0 60h258v1H0zM341 60h49v1H341zM0 61h258v1H0zM339 61h51v1H339zM0 62h258v1H0zM337 62h53v1H337zM0 63h258v1H0zM337 63h53v1H337zM0 64h285v1H0zM327 64h63v1H327zM0 65h292v1H0zM320 65h70v1H320zM0 66h390v1H0zM0 67h390v1H0zM0 68h390v1H0zM0 69h390v1H0zM0 70h390v1H0zM0 71h390v1H0zM0 72h390v1H0zM0 73h390v1H0zM0 74h390v1H0zM0 75h390v1H0zM0 76h390v1H0zM0 77h390v1H0zM0 78h390v1H0zM0 79h390v1H0zM0 80h390v1H0zM0 81h390v1H0zM0 82h390v1H0zM0 83h390v1H0zM0 84h390v1H0zM0 85h390v1H0zM0 86h390v1H0zM0 87h390v1H0zM0 88h390v1H0zM0 89h390v1H0zM0 90h390v1H0zM0 91h390v1H0zM0 92h390v1H0zM0 93h390v1H0zM0 94h390v1H0zM0 95h390v1H0z" fill="#7b542b"/>
      <path d="M280 55h52v1H280zM280 56h52v1H280zM280 57h52v1H280zM0 95h390v1H0zM0 96h390v1H0zM0 97h390v1H0z" fill="#33434c"/>
      <circle cx="63.2" cy="44.9" r="3.5" fill="#b7ff5a" stroke="#071117" stroke-width="1"/><rect x="300.6" y="41.7" width="7" height="7" rx="1" fill="#ff4db8" stroke="#071117" stroke-width="1"/>
      <rect width="390" height="98" rx="6" fill="none" stroke="#4f6975"/>

    </g>

    <g transform="translate(826 242)">
      <rect width="390" height="98" rx="6" fill="#071117"/>
      <path d="M62 40h9v1H62zM73 40h70v1H73zM146 40h12v1H146zM62 41h96v1H62zM62 42h96v1H62zM62 43h96v1H62zM233 43h2v1H233zM254 43h3v1H254zM266 43h8v1H266zM281 43h2v1H281zM285 43h13v1H285zM302 43h13v1H302zM318 43h26v1H318zM62 44h96v1H62zM232 44h113v1H232zM62 45h96v1H62zM232 45h113v1H232zM62 46h96v1H62zM232 46h113v1H232zM38 47h4v1H38zM46 47h112v1H46zM232 47h113v1H232zM35 48h123v1H35zM232 48h113v1H232zM23 49h135v1H23zM232 49h113v1H232zM18 50h140v1H18zM232 50h113v1H232zM8 51h150v1H8zM232 51h114v1H232zM365 51h3v1H365zM375 51h12v1H375zM0 52h158v1H0zM232 52h158v1H232zM0 53h158v1H0zM232 53h158v1H232zM0 54h165v1H0zM168 54h4v1H168zM232 54h158v1H232zM0 55h172v1H0zM218 55h8v1H218zM230 55h160v1H230zM0 56h172v1H0zM218 56h172v1H218zM0 57h172v1H0zM218 57h172v1H218zM0 58h172v1H0zM218 58h172v1H218zM0 59h172v1H0zM218 59h172v1H218zM0 60h172v1H0zM218 60h172v1H218zM0 61h172v1H0zM218 61h172v1H218zM0 62h172v1H0zM218 62h172v1H218zM0 63h172v1H0zM218 63h172v1H218zM0 64h172v1H0zM218 64h172v1H218zM0 65h172v1H0zM218 65h172v1H218zM0 66h172v1H0zM218 66h172v1H218zM0 67h172v1H0zM218 67h172v1H218zM0 68h172v1H0zM218 68h172v1H218zM0 69h172v1H0zM218 69h172v1H218zM0 70h172v1H0zM218 70h172v1H218zM0 71h172v1H0zM218 71h172v1H218zM0 72h172v1H0zM218 72h172v1H218zM0 73h172v1H0zM218 73h172v1H218zM0 74h172v1H0zM218 74h172v1H218zM0 75h172v1H0zM218 75h172v1H218zM0 76h172v1H0zM218 76h172v1H218zM0 77h172v1H0zM218 77h172v1H218zM0 78h172v1H0zM218 78h172v1H218zM0 79h172v1H0zM218 79h172v1H218zM0 80h172v1H0zM218 80h172v1H218zM0 81h390v1H0zM0 82h390v1H0zM0 83h390v1H0zM0 84h390v1H0zM0 85h390v1H0zM0 86h390v1H0zM0 87h390v1H0zM0 88h390v1H0zM0 89h390v1H0zM0 90h390v1H0zM0 91h390v1H0zM0 92h390v1H0zM0 93h390v1H0zM0 94h390v1H0zM0 95h390v1H0z" fill="#7b542b"/>
      <path d="M169 42h12v1H169zM209 42h12v1H209zM169 43h52v1H169zM180 44h30v1H180zM0 95h390v1H0zM0 96h390v1H0zM0 97h390v1H0z" fill="#33434c"/>
      <circle cx="85.7" cy="39.2" r="3.5" fill="#b7ff5a" stroke="#071117" stroke-width="1"/><circle cx="325.1" cy="42.2" r="3.5" fill="#ff4db8" stroke="#071117" stroke-width="1"/>
      <rect width="390" height="98" rx="6" fill="none" stroke="#4f6975"/>

    </g>

    <g transform="translate(1230 242)">
      <rect width="390" height="98" rx="6" fill="#071117"/>
      <path d="M193 24h4v1H193zM191 25h8v1H191zM189 26h11v1H189zM187 27h15v1H187zM185 28h18v1H185zM184 29h22v1H184zM182 30h26v1H182zM180 31h29v1H180zM178 32h33v1H178zM176 33h36v1H176zM175 34h39v1H175zM173 35h43v1H173zM171 36h21v1H171zM198 36h19v1H198zM169 37h17v1H169zM204 37h16v1H204zM167 38h16v1H167zM207 38h14v1H207zM166 39h15v1H166zM209 39h14v1H209zM164 40h15v1H164zM211 40h14v1H211zM162 41h16v1H162zM212 41h14v1H212zM158 42h19v1H158zM213 42h16v1H213zM153 43h24v1H153zM213 43h22v1H213zM148 44h29v1H148zM213 44h26v1H213zM143 45h34v1H143zM213 45h33v1H213zM137 46h40v1H137zM213 46h41v1H213zM133 47h44v1H133zM213 47h43v1H213zM130 48h48v1H130zM212 48h49v1H212zM122 49h57v1H122zM211 49h57v1H211zM120 50h61v1H120zM209 50h64v1H209zM114 51h68v1H114zM208 51h71v1H208zM109 52h73v1H109zM208 52h93v1H208zM86 53h9v1H86zM98 53h92v1H98zM200 53h117v1H200zM320 53h3v1H320zM67 54h266v1H67zM339 54h3v1H339zM49 55h5v1H49zM56 55h288v1H56zM348 55h1v1H348zM31 56h3v1H31zM38 56h324v1H38zM0 57h2v1H0zM7 57h5v1H7zM15 57h375v1H15zM0 58h390v1H0zM0 59h390v1H0zM0 60h390v1H0zM0 61h390v1H0zM0 62h390v1H0zM0 63h390v1H0zM0 64h390v1H0zM0 65h390v1H0zM0 66h390v1H0zM0 67h390v1H0zM0 68h390v1H0zM0 69h390v1H0zM0 70h390v1H0zM0 71h390v1H0zM0 72h390v1H0zM0 73h390v1H0zM0 74h390v1H0zM0 75h390v1H0zM0 76h390v1H0zM0 77h390v1H0zM0 78h390v1H0zM0 79h390v1H0zM0 80h390v1H0zM0 81h390v1H0zM0 82h390v1H0zM0 83h390v1H0zM0 84h390v1H0zM0 85h390v1H0zM0 86h390v1H0zM0 87h390v1H0zM0 88h390v1H0zM0 89h390v1H0zM0 90h390v1H0zM0 91h390v1H0zM0 92h390v1H0zM0 93h390v1H0zM0 94h390v1H0zM0 95h390v1H0z" fill="#7b542b"/>
      <path d="M0 95h390v1H0zM0 96h390v1H0zM0 97h390v1H0z" fill="#33434c"/>
      <circle cx="62.7" cy="53.8" r="3.5" fill="#b7ff5a" stroke="#071117" stroke-width="1"/><circle cx="354.4" cy="54.7" r="3.5" fill="#ff4db8" stroke="#071117" stroke-width="1"/>
      <rect width="390" height="98" rx="6" fill="none" stroke="#4f6975"/>

    </g>
</svg>
